<?xml version="1.0" encoding="UTF-8"?>
<svg width="28px" height="19px" viewBox="0 0 28 19" version="1.1" xmlns="http://www.w3.org/2000/svg" xmlns:xlink="http://www.w3.org/1999/xlink">
    <!-- Generator: Sketch 52.6 (67491) - http://www.bohemiancoding.com/sketch -->
    <title>00 Footer youtube</title>
    <desc>Created with Sketch.</desc>
    <g id="Symbols" stroke="none" stroke-width="1" fill="none" fill-rule="evenodd">
        <g id="Footer" transform="translate(-1579.000000, -425.000000)" fill="#CCCED8" fill-rule="nonzero">
            <g id="00-Footer-youtube" transform="translate(1579.000000, 425.000000)">
                <path d="M26.4713711,2.91717707 C26.1599121,1.79121252 25.246981,0.903627073 24.089238,0.600439594 C21.9741876,0.0376979269 13.513821,0.0376979269 13.513821,0.0376979269 C13.513821,0.0376979269 5.05378436,0.0376979269 2.93873397,0.579104146 C1.80326153,0.881970813 0.868059863,1.79137293 0.556600916,2.91717707 C-1.77635684e-15,4.97371874 -1.77635684e-15,9.23871667 -1.77635684e-15,9.23871667 C-1.77635684e-15,9.23871667 -1.77635684e-15,13.5252104 0.556600916,15.5602563 C0.868389777,16.6860604 1.78099089,17.5736459 2.93889892,17.8768333 C5.07605497,18.4397354 13.5141509,18.4397354 13.5141509,18.4397354 C13.5141509,18.4397354 21.9741876,18.4397354 24.089238,17.8983292 C25.247146,17.5953021 26.1599121,16.7077167 26.471701,15.5819125 C27.0281369,13.5252104 27.0281369,9.26037293 27.0281369,9.26037293 C27.0281369,9.26037293 27.0504076,4.97371874 26.4713711,2.91717707 Z M10.820229,13.1788708 L10.820229,5.29856252 L17.85544,9.23871667 L10.820229,13.1788708 Z" id="Shape"></path>
            </g>
        </g>
    </g>
</svg>