<?xml version="1.0" encoding="UTF-8"?>
<svg width="20px" height="20px" viewBox="0 0 20 20" version="1.1" xmlns="http://www.w3.org/2000/svg" xmlns:xlink="http://www.w3.org/1999/xlink">
    <!-- Generator: Sketch 52.6 (67491) - http://www.bohemiancoding.com/sketch -->
    <title>00 Footer insta</title>
    <desc>Created with Sketch.</desc>
    <g id="Symbols" stroke="none" stroke-width="1" fill="none" fill-rule="evenodd">
        <g id="Footer" transform="translate(-1489.000000, -424.000000)" fill="#CCCED8">
            <g id="00-Footer-insta" transform="translate(1489.000000, 424.000000)">
                <path d="M16.9173239,0 L2.90343087,0 C1.30261218,0 0,1.27233156 0,2.8359375 L0,16.5240625 C0,18.0876684 1.30261218,19.36 2.90343087,19.36 L16.9173239,19.36 C18.5181425,19.36 19.8207547,18.0876684 19.8207547,16.5240625 L19.8207547,2.8359375 C19.8207547,1.27233156 18.5181425,0 16.9173239,0 Z M9.94908977,14.746875 C7.06728342,14.746875 4.72291421,12.4570032 4.72291421,9.6421875 C4.72291421,6.82737184 7.06728342,4.5375 9.94908977,4.5375 C12.8308961,4.5375 15.1752653,6.82737184 15.1752653,9.6421875 C15.1752653,12.4570032 12.8308961,14.746875 9.94908977,14.746875 Z M15.7559515,5.671875 C14.7953998,5.671875 14.013893,4.90853516 14.013893,3.9703125 C14.013893,3.03208984 14.7953998,2.26875 15.7559515,2.26875 C16.7165032,2.26875 17.49801,3.03208984 17.49801,3.9703125 C17.49801,4.90853516 16.7165032,5.671875 15.7559515,5.671875 Z" id="Shape" fill-rule="nonzero"></path>
                <path d="M15.7559515,3.403125 C15.4355156,3.403125 15.1752653,3.65732543 15.1752653,3.9703125 C15.1752653,4.28329957 15.4355156,4.5375 15.7559515,4.5375 C16.0763875,4.5375 16.3366377,4.28329957 16.3366377,3.9703125 C16.3366377,3.65732543 16.0763875,3.403125 15.7559515,3.403125 Z" id="Path"></path>
                <path d="M9.94908977,5.671875 C7.70800407,5.671875 5.88428656,7.45319824 5.88428656,9.6421875 C5.88428656,11.8311768 7.70800407,13.6125 9.94908977,13.6125 C12.1901755,13.6125 14.013893,11.8311768 14.013893,9.6421875 C14.013893,7.45319824 12.1901755,5.671875 9.94908977,5.671875 Z" id="Path"></path>
            </g>
        </g>
    </g>
</svg>