<?xml version="1.0" encoding="UTF-8"?>
<svg width="19px" height="21px" viewBox="0 0 19 21" version="1.1" xmlns="http://www.w3.org/2000/svg" xmlns:xlink="http://www.w3.org/1999/xlink">
    <!-- Generator: Sketch 52.2 (67145) - http://www.bohemiancoding.com/sketch -->
    <title>Path</title>
    <desc>Created with Sketch.</desc>
    <g id="Symbols" stroke="none" stroke-width="1" fill="none" fill-rule="evenodd">
        <g id="Footer" transform="translate(-1502.000000, -423.000000)" fill="#CCCED8">
            <g id="3046120" transform="translate(1502.000000, 423.000000)">
                <path d="M18.9712889,5.26599609 C17.7375556,5.26599609 16.5992444,4.86896484 15.6851333,4.19917969 C14.6367556,3.43136719 13.8835111,2.30507812 13.6175111,1.00693359 C13.5516444,0.686191406 13.5161778,0.355195312 13.5128,0.0159960937 L9.98851111,0.0159960937 L9.98851111,9.37083984 L9.98428889,14.4949219 C9.98428889,15.8648437 9.06595556,17.0264062 7.79295556,17.4349219 C7.42351111,17.553457 7.02451111,17.6096484 6.60904444,17.5875 C6.07873333,17.5591992 5.58177778,17.40375 5.14984444,17.1527344 C4.23066667,16.6187109 3.60746667,15.6499219 3.59057778,14.5416797 C3.56397778,12.8095898 5.00544444,11.3974219 6.78722222,11.3974219 C7.13893333,11.3974219 7.47671111,11.4532031 7.79295556,11.5545117 L7.79295556,8.99759766 L7.79295556,8.0784375 C7.4594,8.03044922 7.11993333,8.00542969 6.77666667,8.00542969 C4.82642222,8.00542969 3.00242222,8.79292969 1.6986,10.2116602 C0.713133333,11.2838086 0.122022222,12.6516797 0.0308222222,14.0859961 C-0.0886666667,15.9702539 0.621088889,17.7614062 1.99753333,19.0829297 C2.19977778,19.2769336 2.41215556,19.4569922 2.63424444,19.6231055 C3.81435556,20.5053516 5.25708889,20.9835937 6.77666667,20.9835937 C7.11993333,20.9835937 7.4594,20.9589844 7.79295556,20.9109961 C9.21246667,20.7067383 10.5222,20.0755078 11.5558,19.0829297 C12.8258444,17.8635352 13.5275778,16.2446484 13.5351778,14.521582 L13.5170222,6.86970703 C14.1229111,7.32375 14.7853778,7.69945312 15.4964,7.99107422 C16.6022,8.44429687 17.7747111,8.67398437 18.9814222,8.67357422 L18.9814222,6.18761719 L18.9814222,5.26517578 C18.9822667,5.26599609 18.9721333,5.26599609 18.9712889,5.26599609 Z" id="Path"></path>
            </g>
        </g>
    </g>
</svg>